<?xml version="1.0" encoding="UTF-8" standalone="no"?>
<!-- Created with Inkscape (http://www.inkscape.org/) -->

<svg
   xmlns:dc="http://purl.org/dc/elements/1.1/"
   xmlns:cc="http://creativecommons.org/ns#"
   xmlns:rdf="http://www.w3.org/1999/02/22-rdf-syntax-ns#"
   xmlns:svg="http://www.w3.org/2000/svg"
   xmlns="http://www.w3.org/2000/svg"
   xmlns:sodipodi="http://sodipodi.sourceforge.net/DTD/sodipodi-0.dtd"
   xmlns:inkscape="http://www.inkscape.org/namespaces/inkscape"
   width="148.14293mm"
   height="148.14293mm"
   viewBox="0 0 524.91589 524.91589"
   id="svg4157"
   version="1.1"
   inkscape:version="0.91 r"
   sodipodi:docname="dnd_o.svg">
  <defs
     id="defs4159" />
  <sodipodi:namedview
     id="base"
     pagecolor="#ffffff"
     bordercolor="#666666"
     borderopacity="1.0"
     inkscape:pageopacity="0.0"
     inkscape:pageshadow="2"
     inkscape:zoom="0.7"
     inkscape:cx="114.82456"
     inkscape:cy="99.81463"
     inkscape:document-units="px"
     inkscape:current-layer="layer2"
     showgrid="false"
     inkscape:window-width="1919"
     inkscape:window-height="1028"
     inkscape:window-x="1600"
     inkscape:window-y="0"
     inkscape:window-maximized="0"
     fit-margin-top="0"
     fit-margin-left="0"
     fit-margin-right="0"
     fit-margin-bottom="0" />
  <metadata
     id="metadata4162">
    <rdf:RDF>
      <cc:Work
         rdf:about="">
        <dc:format>image/svg+xml</dc:format>
        <dc:type
           rdf:resource="http://purl.org/dc/dcmitype/StillImage" />
        <dc:title></dc:title>
      </cc:Work>
    </rdf:RDF>
  </metadata>
  <g
     inkscape:groupmode="layer"
     id="layer2"
     inkscape:label="Layer 2"
     transform="translate(-126.37888,-37.618561)">
    <circle
       style="fill:none;fill-opacity:1;stroke:#777777;stroke-width:27.54431152;stroke-linecap:butt;stroke-linejoin:miter;stroke-miterlimit:4;stroke-dasharray:55.08862465, 27.54431233000000034;stroke-dashoffset:0;stroke-opacity:1"
       id="path4184"
       cx="388.83682"
       cy="300.07651"
       r="248.68579" />
  </g>
  <g
     inkscape:label="Layer 1"
     inkscape:groupmode="layer"
     id="layer1"
     transform="translate(-126.37888,-37.618561)">
    <path
       style="fill:#777777;fill-opacity:1"
       d="m 330.79238,334.77218 c 0,0 -48.25184,0.11153 -52.21513,-1.09038 -8.65296,-2.62413 -15.94668,-9.91826 -18.577,-18.57803 -1.2827,-4.22304 -1.31287,-6.09702 -1.13637,-70.62723 0.18132,-66.28908 0.18132,-66.28908 2.30367,-70.76955 3.85463,-8.13732 10.65205,-13.84446 19.11477,-16.04872 5.60642,-1.46027 129.95556,-1.45283 135.38097,0.008 l 0,5e-5 c 4.97846,1.34058 8.49883,3.29602 12.249,6.80387 3.90332,3.6511 6.18837,7.36346 7.88215,12.8056 1.14789,3.68816 1.24897,6.50753 1.24897,34.83563 0,16.95247 0.51741,46.06547 0.2238,45.94392 -0.2936,-0.12153 -17.60284,-26.90232 -17.60284,-26.90232 0,0 -2.50903,-1.82527 -2.50903,-24.94236 0,-25.5343 -0.0487,-25.86529 -4.17553,-28.38157 -2.06549,-1.2594 -3.80615,-1.29414 -64.96842,-1.29655 -69.37697,-0.003 -65.41644,-0.2454 -68.11055,4.17305 -1.25969,2.06593 -1.29411,3.81196 -1.29655,65.67643 -0.005,76.3916 -2.06182,68.55239 18.39822,68.70157 l 7.27595,0.0531"
       id="path4731"
       inkscape:connector-curvature="0"
       sodipodi:nodetypes="csssssccsssccsssscsc" />
    <path
       style="fill:#777777;fill-opacity:1"
       d="m 384.51344,359.32858 c -4.40999,-1.46149 -2.39376,-0.12961 -39.4474,-26.05821 -16.09842,-11.265 -29.82119,-21.29452 -30.49504,-22.2878 -1.75924,-2.59321 -1.68147,-8.72136 0.14165,-11.16324 2.16372,-2.89807 4.54822,-4.35264 7.72175,-4.71035 3.66136,-0.41268 5.34625,0.4418 16.43444,8.3346 4.55768,3.24426 8.37325,5.82453 8.47905,5.73395 0.1058,-0.0906 -3.59371,-6.69091 -8.22113,-14.6674 -4.62742,-7.97649 -8.82647,-15.48797 -9.33121,-16.69218 -3.3165,-7.9124 7.47306,-15.37319 13.87989,-9.59772 0.72008,0.64912 2.62774,3.4637 4.23923,6.25463 3.44029,5.95821 4.31615,6.81116 6.44533,6.27677 2.79825,-0.70231 2.44972,-2.53944 -1.98144,-10.44431 -3.23137,-5.76452 -4.22443,-8.15963 -4.2241,-10.18797 0.001,-7.15161 7.94171,-11.30133 13.65773,-7.13749 0.92472,0.67362 3.56399,4.49421 5.86502,8.49021 4.01828,6.97815 4.27197,7.26544 6.4156,7.26544 3.45023,0 3.27158,-2.18456 -0.75967,-9.28932 -3.06334,-5.39889 -3.3541,-6.26549 -3.09738,-9.23175 0.23645,-2.73216 0.67954,-3.63669 2.67918,-5.46922 1.98776,-1.82165 2.91651,-2.19566 5.45227,-2.19566 4.47045,0 6.41192,1.50459 10.01695,7.76289 5.91523,10.26874 7.04094,11.77816 8.94888,11.99917 1.24458,0.14417 1.99016,-0.19887 2.49911,-1.14987 0.59961,-1.12038 0.26258,-2.2288 -1.94422,-6.39398 -1.46827,-2.77126 -2.66957,-5.76867 -2.66957,-6.66091 0,-4.84297 4.06154,-8.86702 8.94963,-8.86702 4.82293,0 5.99671,1.32779 14.70174,16.63074 9.16788,16.11658 12.53166,23.31232 17.67535,37.8106 6.28919,17.72717 6.6781,19.31705 6.70865,27.42624 0.0483,12.84812 -2.1197,15.3809 -23.96466,27.99577 -8.31659,4.80261 -16.31437,9.23067 -17.77283,9.84013 -4.06318,1.69792 -12.46441,1.88729 -17.0028,0.38326 z"
       id="path4729"
       inkscape:connector-curvature="0" />
    <path
       id="path4146"
       style="fill:#777777;fill-opacity:1"
       d="m 424.28613,431.95501 c 0,9.94404 0,9.94404 -13.59018,9.94404 -13.59018,0 -13.59018,0 -13.59018,-9.94404 0,-9.94403 0,-9.94403 13.59018,-9.94403 13.59018,0 13.59018,0 13.59018,9.94403 z m 44.41668,0 c 0,9.94404 0,9.94404 -13.92165,9.94404 -13.92164,0 -13.92164,0 -13.92164,-9.94404 0,-9.94403 0,-9.94403 13.92164,-9.94403 13.92165,0 13.92165,0 13.92165,9.94403 z M 363.29854,409.24947 c 0.004,10.2661 2.33038,12.76151 11.89743,12.76151 5.33641,0 5.33641,0 5.33641,9.94403 0,9.94404 0,9.94404 -5.82713,9.94404 -9.70939,0 -16.27669,-2.31931 -22.16614,-7.8282 -6.54527,-6.12234 -9.13112,-12.93357 -9.13112,-24.05178 0,-7.23322 0,-7.23322 9.94404,-7.23322 9.94403,0 9.94403,0 9.94651,6.46362 z m 158.3308,2.32027 c -0.24461,8.2045 -0.4006,9.07944 -2.36487,13.26437 -5.22769,11.13769 -15.12416,17.06494 -28.4926,17.06494 -5.49568,0 -5.49568,0 -5.49568,-9.94404 0,-9.94403 0,-9.94403 5.20545,-9.94403 4.32077,0 5.58663,-0.25689 7.44837,-1.51151 3.29412,-2.2199 3.89878,-3.95974 3.9098,-11.25 0.01,-6.46362 0.01,-6.46362 10.0306,-6.46362 10.02082,0 10.02082,0 9.75893,8.78389 z M 363.29606,372.29081 c 0,13.92165 0,13.92165 -9.94403,13.92165 -9.94404,0 -9.94404,0 -9.94404,-13.92165 0,-13.92164 0,-13.92164 9.94404,-13.92164 9.94403,0 9.94403,0 9.94403,13.92164 z m 158.44159,-0.0177 c 0,13.93936 0,13.93936 -9.95748,13.93936 -9.95748,0 -9.95748,0 -9.7783,-13.75591 0.17918,-13.75591 0.17918,-13.75591 9.95748,-13.93936 9.7783,-0.18347 9.7783,-0.18347 9.7783,13.75591 z m 0,-44.06749 c 0,13.59017 0,13.59017 -9.94403,13.59017 -9.94403,0 -9.94403,0 -9.94403,-13.59017 0,-13.59018 0,-13.59018 9.94403,-13.59018 9.94403,0 9.94403,0 9.94403,13.59018 z m -53.18286,-54.85791 c -0.18345,9.77829 -0.18345,9.77829 -13.93936,9.95747 -13.75591,0.17919 -13.75591,0.17919 -13.75591,-9.77829 0,-9.95748 0,-9.95748 13.93936,-9.95748 13.93938,0 13.93938,0 13.75591,9.7783 z m 33.5619,-8.45716 c 11.92087,3.80738 19.62096,14.76353 19.62096,27.91785 0,5.23365 0,5.23365 -9.94403,5.23365 -9.94403,0 -9.94403,0 -9.94403,-4.71854 0,-4.59722 -0.0662,-4.78472 -2.57375,-7.29229 -2.57375,-2.57375 -2.57375,-2.57375 -8.2867,-2.57375 -5.71294,0 -5.71294,0 -5.71294,-9.94403 0,-9.94403 0,-9.94403 6.46362,-9.90838 4.42176,0.0244 7.69981,0.43047 10.37687,1.28549 z"
       inkscape:connector-curvature="0" />
  </g>
</svg>
